<?xml version="1.0" encoding="UTF-8"?>
<svg xmlns="http://www.w3.org/2000/svg" xmlns:xlink="http://www.w3.org/1999/xlink" stroke-dasharray="none" shape-rendering="auto" font-family="'Dialog'" width="1021" text-rendering="auto" fill-opacity="1" contentScriptType="text/ecmascript" color-interpolation="auto" color-rendering="auto" preserveAspectRatio="xMidYMid meet" font-size="12" viewBox="0 0 1021 1085" fill="black" stroke="black" image-rendering="auto" stroke-miterlimit="10" zoomAndPan="magnify" version="1.0" stroke-linecap="square" stroke-linejoin="miter" contentStyleType="text/css" font-style="normal" height="1085" stroke-width="1" stroke-dashoffset="0" font-weight="normal" stroke-opacity="1">
  <!--Generated by the Batik Graphics2D SVG Generator-->
  <defs id="genericDefs" />
  <g>
    <defs id="defs1">
      <clipPath clipPathUnits="userSpaceOnUse" id="clipPath1">
        <path d="M174 9 L246 9 L246 41 L174 41 L174 9 Z" />
      </clipPath>
      <clipPath clipPathUnits="userSpaceOnUse" id="clipPath2">
        <path d="M174 9 L251 9 L251 41 L174 41 L174 9 Z" />
      </clipPath>
      <clipPath clipPathUnits="userSpaceOnUse" id="clipPath3">
        <path d="M204 39 L216 39 L216 1076 L204 1076 L204 39 Z" />
      </clipPath>
      <clipPath clipPathUnits="userSpaceOnUse" id="clipPath4">
        <path d="M333 9 L451 9 L451 61 L333 61 L333 9 Z" />
      </clipPath>
      <clipPath clipPathUnits="userSpaceOnUse" id="clipPath5">
        <path d="M333 9 L455 9 L455 61 L333 61 L333 9 Z" />
      </clipPath>
      <clipPath clipPathUnits="userSpaceOnUse" id="clipPath6">
        <path d="M333 9 L453 9 L453 61 L333 61 L333 9 Z" />
      </clipPath>
      <clipPath clipPathUnits="userSpaceOnUse" id="clipPath7">
        <path d="M386 59 L398 59 L398 1076 L386 1076 L386 59 Z" />
      </clipPath>
      <clipPath clipPathUnits="userSpaceOnUse" id="clipPath8">
        <path d="M381 89 L403 89 L403 131 L381 131 L381 89 Z" />
      </clipPath>
      <clipPath clipPathUnits="userSpaceOnUse" id="clipPath9">
        <path d="M402 89 L456 89 L456 113 L402 113 L402 89 Z" />
      </clipPath>
      <clipPath clipPathUnits="userSpaceOnUse" id="clipPath10">
        <path d="M459 9 L560 9 L560 61 L459 61 L459 9 Z" />
      </clipPath>
      <clipPath clipPathUnits="userSpaceOnUse" id="clipPath11">
        <path d="M459 9 L564 9 L564 61 L459 61 L459 9 Z" />
      </clipPath>
      <clipPath clipPathUnits="userSpaceOnUse" id="clipPath12">
        <path d="M459 9 L562 9 L562 61 L459 61 L459 9 Z" />
      </clipPath>
      <clipPath clipPathUnits="userSpaceOnUse" id="clipPath13">
        <path d="M503 59 L515 59 L515 1076 L503 1076 L503 59 Z" />
      </clipPath>
      <clipPath clipPathUnits="userSpaceOnUse" id="clipPath14">
        <path d="M498 149 L520 149 L520 191 L498 191 L498 149 Z" />
      </clipPath>
      <clipPath clipPathUnits="userSpaceOnUse" id="clipPath15">
        <path d="M519 149 L573 149 L573 173 L519 173 L519 149 Z" />
      </clipPath>
      <clipPath clipPathUnits="userSpaceOnUse" id="clipPath16">
        <path d="M498 569 L520 569 L520 611 L498 611 L498 569 Z" />
      </clipPath>
      <clipPath clipPathUnits="userSpaceOnUse" id="clipPath17">
        <path d="M519 569 L573 569 L573 593 L519 593 L519 569 Z" />
      </clipPath>
      <clipPath clipPathUnits="userSpaceOnUse" id="clipPath18">
        <path d="M498 789 L520 789 L520 831 L498 831 L498 789 Z" />
      </clipPath>
      <clipPath clipPathUnits="userSpaceOnUse" id="clipPath19">
        <path d="M519 789 L573 789 L573 813 L519 813 L519 789 Z" />
      </clipPath>
      <clipPath clipPathUnits="userSpaceOnUse" id="clipPath20">
        <path d="M498 849 L520 849 L520 891 L498 891 L498 849 Z" />
      </clipPath>
      <clipPath clipPathUnits="userSpaceOnUse" id="clipPath21">
        <path d="M519 849 L573 849 L573 873 L519 873 L519 849 Z" />
      </clipPath>
      <clipPath clipPathUnits="userSpaceOnUse" id="clipPath22">
        <path d="M568 9 L699 9 L699 61 L568 61 L568 9 Z" />
      </clipPath>
      <clipPath clipPathUnits="userSpaceOnUse" id="clipPath23">
        <path d="M568 9 L701 9 L701 61 L568 61 L568 9 Z" />
      </clipPath>
      <clipPath clipPathUnits="userSpaceOnUse" id="clipPath24">
        <path d="M568 9 L702 9 L702 61 L568 61 L568 9 Z" />
      </clipPath>
      <clipPath clipPathUnits="userSpaceOnUse" id="clipPath25">
        <path d="M627 59 L639 59 L639 1076 L627 1076 L627 59 Z" />
      </clipPath>
      <clipPath clipPathUnits="userSpaceOnUse" id="clipPath26">
        <path d="M622 209 L644 209 L644 251 L622 251 L622 209 Z" />
      </clipPath>
      <clipPath clipPathUnits="userSpaceOnUse" id="clipPath27">
        <path d="M643 209 L697 209 L697 233 L643 233 L643 209 Z" />
      </clipPath>
      <clipPath clipPathUnits="userSpaceOnUse" id="clipPath28">
        <path d="M622 329 L644 329 L644 371 L622 371 L622 329 Z" />
      </clipPath>
      <clipPath clipPathUnits="userSpaceOnUse" id="clipPath29">
        <path d="M643 329 L697 329 L697 353 L643 353 L643 329 Z" />
      </clipPath>
      <clipPath clipPathUnits="userSpaceOnUse" id="clipPath30">
        <path d="M622 449 L644 449 L644 491 L622 491 L622 449 Z" />
      </clipPath>
      <clipPath clipPathUnits="userSpaceOnUse" id="clipPath31">
        <path d="M643 449 L697 449 L697 473 L643 473 L643 449 Z" />
      </clipPath>
      <clipPath clipPathUnits="userSpaceOnUse" id="clipPath32">
        <path d="M622 258 L644 258 L644 300 L622 300 L622 258 Z" />
      </clipPath>
      <clipPath clipPathUnits="userSpaceOnUse" id="clipPath33">
        <path d="M643 258 L685 258 L685 282 L643 282 L643 258 Z" />
      </clipPath>
      <clipPath clipPathUnits="userSpaceOnUse" id="clipPath34">
        <path d="M622 381 L644 381 L644 423 L622 423 L622 381 Z" />
      </clipPath>
      <clipPath clipPathUnits="userSpaceOnUse" id="clipPath35">
        <path d="M643 381 L685 381 L685 405 L643 405 L643 381 Z" />
      </clipPath>
      <clipPath clipPathUnits="userSpaceOnUse" id="clipPath36">
        <path d="M622 499 L644 499 L644 541 L622 541 L622 499 Z" />
      </clipPath>
      <clipPath clipPathUnits="userSpaceOnUse" id="clipPath37">
        <path d="M643 499 L685 499 L685 523 L643 523 L643 499 Z" />
      </clipPath>
      <clipPath clipPathUnits="userSpaceOnUse" id="clipPath38">
        <path d="M622 915 L644 915 L644 957 L622 957 L622 915 Z" />
      </clipPath>
      <clipPath clipPathUnits="userSpaceOnUse" id="clipPath39">
        <path d="M643 915 L685 915 L685 939 L643 939 L643 915 Z" />
      </clipPath>
      <clipPath clipPathUnits="userSpaceOnUse" id="clipPath40">
        <path d="M707 9 L843 9 L843 61 L707 61 L707 9 Z" />
      </clipPath>
      <clipPath clipPathUnits="userSpaceOnUse" id="clipPath41">
        <path d="M707 9 L847 9 L847 61 L707 61 L707 9 Z" />
      </clipPath>
      <clipPath clipPathUnits="userSpaceOnUse" id="clipPath42">
        <path d="M707 9 L845 9 L845 61 L707 61 L707 9 Z" />
      </clipPath>
      <clipPath clipPathUnits="userSpaceOnUse" id="clipPath43">
        <path d="M707 9 L848 9 L848 61 L707 61 L707 9 Z" />
      </clipPath>
      <clipPath clipPathUnits="userSpaceOnUse" id="clipPath44">
        <path d="M769 59 L781 59 L781 1076 L769 1076 L769 59 Z" />
      </clipPath>
      <clipPath clipPathUnits="userSpaceOnUse" id="clipPath45">
        <path d="M764 664 L786 664 L786 706 L764 706 L764 664 Z" />
      </clipPath>
      <clipPath clipPathUnits="userSpaceOnUse" id="clipPath46">
        <path d="M785 664 L839 664 L839 688 L785 688 L785 664 Z" />
      </clipPath>
      <clipPath clipPathUnits="userSpaceOnUse" id="clipPath47">
        <path d="M764 729 L786 729 L786 771 L764 771 L764 729 Z" />
      </clipPath>
      <clipPath clipPathUnits="userSpaceOnUse" id="clipPath48">
        <path d="M785 729 L827 729 L827 753 L785 753 L785 729 Z" />
      </clipPath>
      <clipPath clipPathUnits="userSpaceOnUse" id="clipPath49">
        <path d="M851 9 L981 9 L981 61 L851 61 L851 9 Z" />
      </clipPath>
      <clipPath clipPathUnits="userSpaceOnUse" id="clipPath50">
        <path d="M851 9 L985 9 L985 61 L851 61 L851 9 Z" />
      </clipPath>
      <clipPath clipPathUnits="userSpaceOnUse" id="clipPath51">
        <path d="M851 9 L983 9 L983 61 L851 61 L851 9 Z" />
      </clipPath>
      <clipPath clipPathUnits="userSpaceOnUse" id="clipPath52">
        <path d="M910 59 L922 59 L922 1076 L910 1076 L910 59 Z" />
      </clipPath>
      <clipPath clipPathUnits="userSpaceOnUse" id="clipPath53">
        <path d="M905 984 L927 984 L927 1026 L905 1026 L905 984 Z" />
      </clipPath>
      <clipPath clipPathUnits="userSpaceOnUse" id="clipPath54">
        <path d="M926 984 L968 984 L968 1008 L926 1008 L926 984 Z" />
      </clipPath>
      <clipPath clipPathUnits="userSpaceOnUse" id="clipPath55">
        <path d="M-1 -1 L1022 -1 L1022 1086 L-1 1086 L-1 -1 Z" />
      </clipPath>
      <clipPath clipPathUnits="userSpaceOnUse" id="clipPath56">
        <path d="M183 64 L508 64 L508 88 L183 88 L183 64 Z" />
      </clipPath>
      <clipPath clipPathUnits="userSpaceOnUse" id="clipPath57">
        <path d="M208 85 L220 85 L220 96 L208 96 L208 85 Z" />
      </clipPath>
      <clipPath clipPathUnits="userSpaceOnUse" id="clipPath58">
        <path d="M185 125 L505 125 L505 149 L185 149 L185 125 Z" />
      </clipPath>
      <clipPath clipPathUnits="userSpaceOnUse" id="clipPath59">
        <path d="M208 145 L220 145 L220 156 L208 156 L208 145 Z" />
      </clipPath>
      <clipPath clipPathUnits="userSpaceOnUse" id="clipPath60">
        <path d="M166 182 L511 182 L511 206 L166 206 L166 182 Z" />
      </clipPath>
      <clipPath clipPathUnits="userSpaceOnUse" id="clipPath61">
        <path d="M208 205 L220 205 L220 216 L208 216 L208 205 Z" />
      </clipPath>
      <clipPath clipPathUnits="userSpaceOnUse" id="clipPath62">
        <path d="M23 301 L806 301 L806 325 L23 325 L23 301 Z" />
      </clipPath>
      <clipPath clipPathUnits="userSpaceOnUse" id="clipPath63">
        <path d="M208 325 L220 325 L220 336 L208 336 L208 325 Z" />
      </clipPath>
      <clipPath clipPathUnits="userSpaceOnUse" id="clipPath64">
        <path d="M205 422 L304 422 L304 446 L205 446 L205 422 Z" />
      </clipPath>
      <clipPath clipPathUnits="userSpaceOnUse" id="clipPath65">
        <path d="M208 445 L220 445 L220 456 L208 456 L208 445 Z" />
      </clipPath>
      <clipPath clipPathUnits="userSpaceOnUse" id="clipPath66">
        <path d="M186 544 L506 544 L506 568 L186 568 L186 544 Z" />
      </clipPath>
      <clipPath clipPathUnits="userSpaceOnUse" id="clipPath67">
        <path d="M208 565 L220 565 L220 576 L208 576 L208 565 Z" />
      </clipPath>
      <clipPath clipPathUnits="userSpaceOnUse" id="clipPath68">
        <path d="M199 604 L703 604 L703 683 L199 683 L199 604 Z" />
      </clipPath>
      <clipPath clipPathUnits="userSpaceOnUse" id="clipPath69">
        <path d="M199 604 L702 604 L702 683 L199 683 L199 604 Z" />
      </clipPath>
      <clipPath clipPathUnits="userSpaceOnUse" id="clipPath70">
        <path d="M208 660 L220 660 L220 671 L208 671 L208 660 Z" />
      </clipPath>
      <clipPath clipPathUnits="userSpaceOnUse" id="clipPath71">
        <path d="M183 759 L503 759 L503 783 L183 783 L183 759 Z" />
      </clipPath>
      <clipPath clipPathUnits="userSpaceOnUse" id="clipPath72">
        <path d="M208 785 L220 785 L220 796 L208 796 L208 785 Z" />
      </clipPath>
      <clipPath clipPathUnits="userSpaceOnUse" id="clipPath73">
        <path d="M191 821 L433 821 L433 845 L191 845 L191 821 Z" />
      </clipPath>
      <clipPath clipPathUnits="userSpaceOnUse" id="clipPath74">
        <path d="M208 845 L220 845 L220 856 L208 856 L208 845 Z" />
      </clipPath>
      <clipPath clipPathUnits="userSpaceOnUse" id="clipPath75">
        <path d="M178 232 L534 232 L534 256 L178 256 L178 232 Z" />
      </clipPath>
      <clipPath clipPathUnits="userSpaceOnUse" id="clipPath76">
        <path d="M614 254 L626 254 L626 265 L614 265 L614 254 Z" />
      </clipPath>
      <clipPath clipPathUnits="userSpaceOnUse" id="clipPath77">
        <path d="M193 356 L452 356 L452 380 L193 380 L193 356 Z" />
      </clipPath>
      <clipPath clipPathUnits="userSpaceOnUse" id="clipPath78">
        <path d="M614 377 L626 377 L626 388 L614 388 L614 377 Z" />
      </clipPath>
      <clipPath clipPathUnits="userSpaceOnUse" id="clipPath79">
        <path d="M175 474 L566 474 L566 498 L175 498 L175 474 Z" />
      </clipPath>
      <clipPath clipPathUnits="userSpaceOnUse" id="clipPath80">
        <path d="M614 495 L626 495 L626 506 L614 506 L614 495 Z" />
      </clipPath>
      <clipPath clipPathUnits="userSpaceOnUse" id="clipPath81">
        <path d="M131 705 L1002 705 L1002 729 L131 729 L131 705 Z" />
      </clipPath>
      <clipPath clipPathUnits="userSpaceOnUse" id="clipPath82">
        <path d="M756 725 L768 725 L768 736 L756 736 L756 725 Z" />
      </clipPath>
      <clipPath clipPathUnits="userSpaceOnUse" id="clipPath83">
        <path d="M143 891 L899 891 L899 915 L143 915 L143 891 Z" />
      </clipPath>
      <clipPath clipPathUnits="userSpaceOnUse" id="clipPath84">
        <path d="M614 911 L626 911 L626 922 L614 922 L614 911 Z" />
      </clipPath>
      <clipPath clipPathUnits="userSpaceOnUse" id="clipPath85">
        <path d="M139 959 L895 959 L895 983 L139 983 L139 959 Z" />
      </clipPath>
      <clipPath clipPathUnits="userSpaceOnUse" id="clipPath86">
        <path d="M897 980 L909 980 L909 991 L897 991 L897 980 Z" />
      </clipPath>
    </defs>
    <g font-size="19" fill="rgb(238,201,142)" font-family="'Lucida Sans'" stroke-linejoin="round" stroke="rgb(238,201,142)" stroke-width="0" stroke-miterlimit="0">
      <rect x="175" y="10" clip-path="url(#clipPath1)" width="70" height="30" stroke="none" />
    </g>
    <g stroke-width="0.1" font-size="19" font-family="'Lucida Sans'" stroke-linecap="butt">
      <rect x="175" y="10" clip-path="url(#clipPath1)" fill="none" width="69" height="29" />
      <text xml:space="preserve" x="178" y="33" clip-path="url(#clipPath2)" stroke="none">System</text>
      <line clip-path="url(#clipPath3)" fill="none" x1="209" x2="209" y1="40" y2="1075" stroke-dasharray="10,10" stroke-width="1.1" />
    </g>
    <g stroke-linecap="butt" font-size="19" fill="rgb(255,245,181)" font-family="'Lucida Sans'" stroke-dasharray="10,10" stroke="rgb(255,245,181)" stroke-width="1.1">
      <rect x="334" y="10" clip-path="url(#clipPath4)" width="116" height="50" stroke="none" />
    </g>
    <g stroke-width="0.1" font-size="19" font-family="'Lucida Sans'" stroke-linecap="butt">
      <rect x="334" y="10" clip-path="url(#clipPath4)" fill="none" width="115" height="49" />
      <text xml:space="preserve" x="347" y="21" clip-path="url(#clipPath5)" stroke="none">theCreator</text>
      <text xml:space="preserve" x="387" y="43" clip-path="url(#clipPath6)" stroke="none">: </text>
      <text xml:space="preserve" x="336" y="65" clip-path="url(#clipPath5)" stroke="none">actMsrCrea...</text>
      <line clip-path="url(#clipPath7)" fill="none" x1="391" x2="391" y1="60" y2="1075" stroke-dasharray="10,10" stroke-width="1.1" />
    </g>
    <g stroke-linecap="butt" font-size="19" fill="rgb(39,76,114)" font-family="'Lucida Sans'" stroke-dasharray="10,10" stroke="rgb(39,76,114)" stroke-width="1.1">
      <rect x="382" y="90" clip-path="url(#clipPath8)" width="20" height="40" stroke="none" />
      <rect x="382" y="90" clip-path="url(#clipPath8)" fill="none" width="19" stroke-dasharray="none" height="39" stroke-width="0.1" />
    </g>
    <g stroke-width="0.1" font-size="19" font-family="'Lucida Sans'" stroke-linecap="butt">
      <text xml:space="preserve" x="403" y="109" clip-path="url(#clipPath9)" stroke="none">out01</text>
      <rect x="460" y="10" clip-path="url(#clipPath10)" fill="rgb(255,245,181)" width="99" height="50" stroke="none" />
      <rect x="460" y="10" clip-path="url(#clipPath10)" fill="none" width="98" height="49" />
      <text xml:space="preserve" x="472" y="21" clip-path="url(#clipPath11)" stroke="none">theClock</text>
      <text xml:space="preserve" x="504" y="43" clip-path="url(#clipPath12)" stroke="none">: </text>
      <text xml:space="preserve" x="460" y="65" clip-path="url(#clipPath11)" stroke="none">actActivator</text>
      <line clip-path="url(#clipPath13)" fill="none" x1="508" x2="508" y1="60" y2="1075" stroke-dasharray="10,10" stroke-width="1.1" />
    </g>
    <g stroke-linecap="butt" font-size="19" fill="rgb(39,76,114)" font-family="'Lucida Sans'" stroke-dasharray="10,10" stroke="rgb(39,76,114)" stroke-width="1.1">
      <rect x="499" y="150" clip-path="url(#clipPath14)" width="20" height="40" stroke="none" />
      <rect x="499" y="150" clip-path="url(#clipPath14)" fill="none" width="19" stroke-dasharray="none" height="39" stroke-width="0.1" />
    </g>
    <g stroke-width="0.1" font-size="19" font-family="'Lucida Sans'" stroke-linecap="butt">
      <text xml:space="preserve" x="520" y="169" clip-path="url(#clipPath15)" stroke="none">out02</text>
      <rect x="499" y="570" clip-path="url(#clipPath16)" fill="rgb(39,76,114)" width="20" height="40" stroke="none" />
      <rect x="499" y="570" clip-path="url(#clipPath16)" fill="none" width="19" height="39" stroke="rgb(39,76,114)" />
      <text xml:space="preserve" x="520" y="589" clip-path="url(#clipPath17)" stroke="none">out06</text>
      <rect x="499" y="790" clip-path="url(#clipPath18)" fill="rgb(39,76,114)" width="20" height="40" stroke="none" />
      <rect x="499" y="790" clip-path="url(#clipPath18)" fill="none" width="19" height="39" stroke="rgb(39,76,114)" />
      <text xml:space="preserve" x="520" y="809" clip-path="url(#clipPath19)" stroke="none">out08</text>
      <rect x="499" y="850" clip-path="url(#clipPath20)" fill="rgb(39,76,114)" width="20" height="40" stroke="none" />
      <rect x="499" y="850" clip-path="url(#clipPath20)" fill="none" width="19" height="39" stroke="rgb(39,76,114)" />
      <text xml:space="preserve" x="520" y="869" clip-path="url(#clipPath21)" stroke="none">out09</text>
      <rect x="569" y="10" clip-path="url(#clipPath22)" fill="rgb(255,245,181)" width="129" height="50" stroke="none" />
      <rect x="569" y="10" clip-path="url(#clipPath22)" fill="none" width="128" height="49" />
      <text xml:space="preserve" x="621" y="21" clip-path="url(#clipPath23)" stroke="none">bill</text>
      <text xml:space="preserve" x="628" y="43" clip-path="url(#clipPath23)" stroke="none">: </text>
      <text xml:space="preserve" x="574" y="65" clip-path="url(#clipPath24)" stroke="none">actAdministr...</text>
      <line clip-path="url(#clipPath25)" fill="none" x1="632" x2="632" y1="60" y2="1075" stroke-dasharray="10,10" stroke-width="1.1" />
    </g>
    <g stroke-linecap="butt" font-size="19" fill="rgb(39,76,114)" font-family="'Lucida Sans'" stroke-dasharray="10,10" stroke="rgb(39,76,114)" stroke-width="1.1">
      <rect x="623" y="210" clip-path="url(#clipPath26)" width="20" height="40" stroke="none" />
      <rect x="623" y="210" clip-path="url(#clipPath26)" fill="none" width="19" stroke-dasharray="none" height="39" stroke-width="0.1" />
    </g>
    <g stroke-width="0.1" font-size="19" font-family="'Lucida Sans'" stroke-linecap="butt">
      <text xml:space="preserve" x="644" y="229" clip-path="url(#clipPath27)" stroke="none">out03</text>
      <rect x="623" y="330" clip-path="url(#clipPath28)" fill="rgb(39,76,114)" width="20" height="40" stroke="none" />
      <rect x="623" y="330" clip-path="url(#clipPath28)" fill="none" width="19" height="39" stroke="rgb(39,76,114)" />
      <text xml:space="preserve" x="644" y="349" clip-path="url(#clipPath29)" stroke="none">out04</text>
      <rect x="623" y="450" clip-path="url(#clipPath30)" fill="rgb(39,76,114)" width="20" height="40" stroke="none" />
      <rect x="623" y="450" clip-path="url(#clipPath30)" fill="none" width="19" height="39" stroke="rgb(39,76,114)" />
      <text xml:space="preserve" x="644" y="469" clip-path="url(#clipPath31)" stroke="none">out05</text>
      <rect x="623" y="259" clip-path="url(#clipPath32)" fill="rgb(194,239,255)" width="20" height="40" stroke="none" />
      <rect x="623" y="259" clip-path="url(#clipPath32)" fill="none" width="19" height="39" stroke="rgb(194,239,255)" />
      <text xml:space="preserve" x="644" y="278" clip-path="url(#clipPath33)" stroke="none">in01</text>
      <rect x="623" y="382" clip-path="url(#clipPath34)" fill="rgb(194,239,255)" width="20" height="40" stroke="none" />
      <rect x="623" y="382" clip-path="url(#clipPath34)" fill="none" width="19" height="39" stroke="rgb(194,239,255)" />
      <text xml:space="preserve" x="644" y="401" clip-path="url(#clipPath35)" stroke="none">in02</text>
      <rect x="623" y="500" clip-path="url(#clipPath36)" fill="rgb(194,239,255)" width="20" height="40" stroke="none" />
      <rect x="623" y="500" clip-path="url(#clipPath36)" fill="none" width="19" height="39" stroke="rgb(194,239,255)" />
      <text xml:space="preserve" x="644" y="519" clip-path="url(#clipPath37)" stroke="none">in03</text>
      <rect x="623" y="916" clip-path="url(#clipPath38)" fill="rgb(194,239,255)" width="20" height="40" stroke="none" />
      <rect x="623" y="916" clip-path="url(#clipPath38)" fill="none" width="19" height="39" stroke="rgb(194,239,255)" />
      <text xml:space="preserve" x="644" y="935" clip-path="url(#clipPath39)" stroke="none">in05</text>
      <rect x="708" y="10" clip-path="url(#clipPath40)" fill="rgb(255,245,181)" width="134" height="50" stroke="none" />
      <rect x="708" y="10" clip-path="url(#clipPath40)" fill="none" width="133" height="49" />
      <text xml:space="preserve" x="751" y="21" clip-path="url(#clipPath41)" stroke="none">tango</text>
      <text xml:space="preserve" x="769" y="43" clip-path="url(#clipPath42)" stroke="none">: </text>
      <text xml:space="preserve" x="708" y="65" clip-path="url(#clipPath43)" stroke="none">actComComp...</text>
      <line clip-path="url(#clipPath44)" fill="none" x1="774" x2="774" y1="60" y2="1075" stroke-dasharray="10,10" stroke-width="1.1" />
    </g>
    <g stroke-linecap="butt" font-size="19" fill="rgb(39,76,114)" font-family="'Lucida Sans'" stroke-dasharray="10,10" stroke="rgb(39,76,114)" stroke-width="1.1">
      <rect x="765" y="665" clip-path="url(#clipPath45)" width="20" height="40" stroke="none" />
      <rect x="765" y="665" clip-path="url(#clipPath45)" fill="none" width="19" stroke-dasharray="none" height="39" stroke-width="0.1" />
    </g>
    <g stroke-width="0.1" font-size="19" font-family="'Lucida Sans'" stroke-linecap="butt">
      <text xml:space="preserve" x="786" y="684" clip-path="url(#clipPath46)" stroke="none">out07</text>
      <rect x="765" y="730" clip-path="url(#clipPath47)" fill="rgb(194,239,255)" width="20" height="40" stroke="none" />
      <rect x="765" y="730" clip-path="url(#clipPath47)" fill="none" width="19" height="39" stroke="rgb(194,239,255)" />
      <text xml:space="preserve" x="786" y="749" clip-path="url(#clipPath48)" stroke="none">in04</text>
      <rect x="852" y="10" clip-path="url(#clipPath49)" fill="rgb(255,245,181)" width="128" height="50" stroke="none" />
      <rect x="852" y="10" clip-path="url(#clipPath49)" fill="none" width="127" height="49" />
      <text xml:space="preserve" x="893" y="21" clip-path="url(#clipPath50)" stroke="none">steve</text>
      <text xml:space="preserve" x="911" y="43" clip-path="url(#clipPath51)" stroke="none">: </text>
      <text xml:space="preserve" x="854" y="65" clip-path="url(#clipPath50)" stroke="none">actCoordinator</text>
      <line clip-path="url(#clipPath52)" fill="none" x1="915" x2="915" y1="60" y2="1075" stroke-dasharray="10,10" stroke-width="1.1" />
    </g>
    <g stroke-linecap="butt" font-size="19" fill="rgb(194,239,255)" font-family="'Lucida Sans'" stroke-dasharray="10,10" stroke="rgb(194,239,255)" stroke-width="1.1">
      <rect x="906" y="985" clip-path="url(#clipPath53)" width="20" height="40" stroke="none" />
      <rect x="906" y="985" clip-path="url(#clipPath53)" fill="none" width="19" stroke-dasharray="none" height="39" stroke-width="0.1" />
    </g>
    <g stroke-width="0.1" font-size="19" font-family="'Lucida Sans'" stroke-linecap="butt">
      <text xml:space="preserve" x="927" y="1004" clip-path="url(#clipPath54)" stroke="none">in06</text>
      <line clip-path="url(#clipPath55)" fill="none" x1="382" x2="210" y1="90" y2="90" stroke="rgb(136,136,136)" stroke-width="2.1" />
      <text x="184" y="84" clip-path="url(#clipPath56)" stroke="none" stroke-width="2.1" xml:space="preserve">oeCreateSystemAndEnvironment("4")</text>
      <line clip-path="url(#clipPath57)" fill="none" x1="217" x2="210" y1="87" y2="90" stroke="rgb(136,136,136)" stroke-width="2.1" />
      <line clip-path="url(#clipPath57)" fill="none" x1="210" x2="217" y1="90" y2="93" stroke="rgb(136,136,136)" stroke-width="2.1" />
      <line clip-path="url(#clipPath55)" fill="none" x1="499" x2="210" y1="150" y2="150" stroke="rgb(136,136,136)" stroke-width="2.1" />
      <text x="186" y="145" clip-path="url(#clipPath58)" stroke="none" stroke-width="2.1" xml:space="preserve">oeSetClock("2017:11:24 - 03:20:00")</text>
      <line clip-path="url(#clipPath59)" fill="none" x1="217" x2="210" y1="147" y2="150" stroke="rgb(136,136,136)" stroke-width="2.1" />
      <line clip-path="url(#clipPath59)" fill="none" x1="210" x2="217" y1="150" y2="153" stroke="rgb(136,136,136)" stroke-width="2.1" />
      <line clip-path="url(#clipPath55)" fill="none" x1="623" x2="210" y1="210" y2="210" stroke="rgb(136,136,136)" stroke-width="2.1" />
      <text x="167" y="202" clip-path="url(#clipPath60)" stroke="none" stroke-width="2.1" xml:space="preserve">oeLogin("icrashadmin","[B@6979e8cb")</text>
      <line clip-path="url(#clipPath61)" fill="none" x1="217" x2="210" y1="207" y2="210" stroke="rgb(136,136,136)" stroke-width="2.1" />
      <line clip-path="url(#clipPath61)" fill="none" x1="210" x2="217" y1="210" y2="213" stroke="rgb(136,136,136)" stroke-width="2.1" />
      <line clip-path="url(#clipPath55)" fill="none" x1="623" x2="210" y1="330" y2="330" stroke="rgb(136,136,136)" stroke-width="2.1" />
      <text x="24" y="321" clip-path="url(#clipPath62)" stroke="none" stroke-width="2.1" xml:space="preserve">oeAddCoordinator("1","steve","pwdMessirExcalibur2017","Sun RSA public key, 2048 bits...")</text>
      <line clip-path="url(#clipPath63)" fill="none" x1="217" x2="210" y1="327" y2="330" stroke="rgb(136,136,136)" stroke-width="2.1" />
      <line clip-path="url(#clipPath63)" fill="none" x1="210" x2="217" y1="330" y2="333" stroke="rgb(136,136,136)" stroke-width="2.1" />
      <line clip-path="url(#clipPath55)" fill="none" x1="623" x2="210" y1="450" y2="450" stroke="rgb(136,136,136)" stroke-width="2.1" />
      <text x="206" y="442" clip-path="url(#clipPath64)" stroke="none" stroke-width="2.1" xml:space="preserve">oeLogout()</text>
      <line clip-path="url(#clipPath65)" fill="none" x1="217" x2="210" y1="447" y2="450" stroke="rgb(136,136,136)" stroke-width="2.1" />
      <line clip-path="url(#clipPath65)" fill="none" x1="210" x2="217" y1="450" y2="453" stroke="rgb(136,136,136)" stroke-width="2.1" />
      <line clip-path="url(#clipPath55)" fill="none" x1="499" x2="210" y1="570" y2="570" stroke="rgb(136,136,136)" stroke-width="2.1" />
      <text x="187" y="564" clip-path="url(#clipPath66)" stroke="none" stroke-width="2.1" xml:space="preserve">oeSetClock("2017:11:26 - 10:15:00")</text>
      <line clip-path="url(#clipPath67)" fill="none" x1="217" x2="210" y1="567" y2="570" stroke="rgb(136,136,136)" stroke-width="2.1" />
      <line clip-path="url(#clipPath67)" fill="none" x1="210" x2="217" y1="570" y2="573" stroke="rgb(136,136,136)" stroke-width="2.1" />
      <line clip-path="url(#clipPath55)" fill="none" x1="765" x2="210" y1="665" y2="665" stroke="rgb(136,136,136)" stroke-width="2.1" />
      <text x="265" y="629" clip-path="url(#clipPath68)" stroke="none" stroke-width="2.1" xml:space="preserve">oeAlert("witness","2017:11:26","10:10:16","</text>
      <text x="234" y="651" clip-path="url(#clipPath68)" stroke="none" stroke-width="2.1" xml:space="preserve">+3524666445252","49.627675:6.159590","3 cars </text>
      <text x="345" y="673" clip-path="url(#clipPath69)" stroke="none" stroke-width="2.1" xml:space="preserve">involved in an accident.")</text>
      <line clip-path="url(#clipPath70)" fill="none" x1="217" x2="210" y1="662" y2="665" stroke="rgb(136,136,136)" stroke-width="2.1" />
      <line clip-path="url(#clipPath70)" fill="none" x1="210" x2="217" y1="665" y2="668" stroke="rgb(136,136,136)" stroke-width="2.1" />
      <line clip-path="url(#clipPath55)" fill="none" x1="499" x2="210" y1="790" y2="790" stroke="rgb(136,136,136)" stroke-width="2.1" />
      <text x="184" y="779" clip-path="url(#clipPath71)" stroke="none" stroke-width="2.1" xml:space="preserve">oeSetClock("2017:11:26 - 10:30:00")</text>
      <line clip-path="url(#clipPath72)" fill="none" x1="217" x2="210" y1="787" y2="790" stroke="rgb(136,136,136)" stroke-width="2.1" />
      <line clip-path="url(#clipPath72)" fill="none" x1="210" x2="217" y1="790" y2="793" stroke="rgb(136,136,136)" stroke-width="2.1" />
      <line clip-path="url(#clipPath55)" fill="none" x1="499" x2="210" y1="850" y2="850" stroke="rgb(136,136,136)" stroke-width="2.1" />
      <text x="192" y="841" clip-path="url(#clipPath73)" stroke="none" stroke-width="2.1" xml:space="preserve">oeSollicitateCrisisHandling()</text>
      <line clip-path="url(#clipPath74)" fill="none" x1="217" x2="210" y1="847" y2="850" stroke="rgb(136,136,136)" stroke-width="2.1" />
      <line clip-path="url(#clipPath74)" fill="none" x1="210" x2="217" y1="850" y2="853" stroke="rgb(136,136,136)" stroke-width="2.1" />
    </g>
    <g stroke-linecap="butt" font-size="19" fill="rgb(136,136,136)" font-family="'Lucida Sans'" stroke-dasharray="5,5" stroke="rgb(136,136,136)" stroke-width="2.1">
      <line clip-path="url(#clipPath55)" fill="none" x1="623" x2="210" y1="259" y2="259" />
      <text x="179" y="252" clip-path="url(#clipPath75)" fill="black" stroke="none" xml:space="preserve">ieMessage(You are logged ! Welcome ...)</text>
      <line clip-path="url(#clipPath76)" fill="none" x1="616" x2="623" y1="262" y2="259" stroke-dasharray="none" />
      <line clip-path="url(#clipPath76)" fill="none" x1="623" x2="616" y1="259" y2="256" stroke-dasharray="none" />
      <line clip-path="url(#clipPath55)" fill="none" x1="623" x2="210" y1="382" y2="382" />
      <text x="194" y="376" clip-path="url(#clipPath77)" fill="black" stroke="none" xml:space="preserve">ieCoordinatorAddedreturned()</text>
      <line clip-path="url(#clipPath78)" fill="none" x1="616" x2="623" y1="385" y2="382" stroke-dasharray="none" />
      <line clip-path="url(#clipPath78)" fill="none" x1="623" x2="616" y1="382" y2="379" stroke-dasharray="none" />
      <line clip-path="url(#clipPath55)" fill="none" x1="623" x2="210" y1="500" y2="500" />
      <text x="176" y="494" clip-path="url(#clipPath79)" fill="black" stroke="none" xml:space="preserve">ieMessage(You are logged out ! Good Bye ...)</text>
      <line clip-path="url(#clipPath80)" fill="none" x1="616" x2="623" y1="503" y2="500" stroke-dasharray="none" />
      <line clip-path="url(#clipPath80)" fill="none" x1="623" x2="616" y1="500" y2="497" stroke-dasharray="none" />
      <line clip-path="url(#clipPath55)" fill="none" x1="765" x2="210" y1="730" y2="730" />
      <text x="132" y="725" clip-path="url(#clipPath81)" fill="black" stroke="none" xml:space="preserve">ieSmsSend(+3524666445252,Your alert has been registered. We will handle it and keep you informed)</text>
      <line clip-path="url(#clipPath82)" fill="none" x1="758" x2="765" y1="733" y2="730" stroke-dasharray="none" />
      <line clip-path="url(#clipPath82)" fill="none" x1="765" x2="758" y1="730" y2="727" stroke-dasharray="none" />
      <line clip-path="url(#clipPath55)" fill="none" x1="623" x2="210" y1="916" y2="916" />
      <text x="144" y="911" clip-path="url(#clipPath83)" fill="black" stroke="none" xml:space="preserve">ieMessage(There are alerts pending since more than the defined delay. Please REACT !)</text>
      <line clip-path="url(#clipPath84)" fill="none" x1="616" x2="623" y1="919" y2="916" stroke-dasharray="none" />
      <line clip-path="url(#clipPath84)" fill="none" x1="623" x2="616" y1="916" y2="913" stroke-dasharray="none" />
      <line clip-path="url(#clipPath55)" fill="none" x1="906" x2="210" y1="985" y2="985" />
      <text x="140" y="979" clip-path="url(#clipPath85)" fill="black" stroke="none" xml:space="preserve">ieMessage(There are alerts pending since more than the defined delay. Please REACT !)</text>
      <line clip-path="url(#clipPath86)" fill="none" x1="899" x2="906" y1="988" y2="985" stroke-dasharray="none" />
      <line clip-path="url(#clipPath86)" fill="none" x1="906" x2="899" y1="985" y2="982" stroke-dasharray="none" />
    </g>
  </g>
</svg>

