<?xml version="1.0" encoding="UTF-8"?>
<svg xmlns="http://www.w3.org/2000/svg" xmlns:xlink="http://www.w3.org/1999/xlink" stroke-dasharray="none" shape-rendering="auto" font-family="'Dialog'" width="1201" text-rendering="auto" fill-opacity="1" contentScriptType="text/ecmascript" color-interpolation="auto" color-rendering="auto" preserveAspectRatio="xMidYMid meet" font-size="12" viewBox="0 0 1201 1010" fill="black" stroke="black" image-rendering="auto" stroke-miterlimit="10" zoomAndPan="magnify" version="1.0" stroke-linecap="square" stroke-linejoin="miter" contentStyleType="text/css" font-style="normal" height="1010" stroke-width="1" stroke-dashoffset="0" font-weight="normal" stroke-opacity="1">
  <!--Generated by the Batik Graphics2D SVG Generator-->
  <defs id="genericDefs" />
  <g>
    <defs id="defs1">
      <clipPath clipPathUnits="userSpaceOnUse" id="clipPath1">
        <path d="M561 9 L668 9 L668 61 L561 61 L561 9 Z" />
      </clipPath>
      <clipPath clipPathUnits="userSpaceOnUse" id="clipPath2">
        <path d="M561 9 L672 9 L672 61 L561 61 L561 9 Z" />
      </clipPath>
      <clipPath clipPathUnits="userSpaceOnUse" id="clipPath3">
        <path d="M561 9 L670 9 L670 61 L561 61 L561 9 Z" />
      </clipPath>
      <clipPath clipPathUnits="userSpaceOnUse" id="clipPath4">
        <path d="M608 59 L620 59 L620 1001 L608 1001 L608 59 Z" />
      </clipPath>
      <clipPath clipPathUnits="userSpaceOnUse" id="clipPath5">
        <path d="M603 89 L625 89 L625 131 L603 131 L603 89 Z" />
      </clipPath>
      <clipPath clipPathUnits="userSpaceOnUse" id="clipPath6">
        <path d="M624 89 L671 89 L671 113 L624 113 L624 89 Z" />
      </clipPath>
      <clipPath clipPathUnits="userSpaceOnUse" id="clipPath7">
        <path d="M676 9 L775 9 L775 61 L676 61 L676 9 Z" />
      </clipPath>
      <clipPath clipPathUnits="userSpaceOnUse" id="clipPath8">
        <path d="M676 9 L779 9 L779 61 L676 61 L676 9 Z" />
      </clipPath>
      <clipPath clipPathUnits="userSpaceOnUse" id="clipPath9">
        <path d="M676 9 L777 9 L777 61 L676 61 L676 9 Z" />
      </clipPath>
      <clipPath clipPathUnits="userSpaceOnUse" id="clipPath10">
        <path d="M676 9 L778 9 L778 61 L676 61 L676 9 Z" />
      </clipPath>
      <clipPath clipPathUnits="userSpaceOnUse" id="clipPath11">
        <path d="M719 59 L731 59 L731 1001 L719 1001 L719 59 Z" />
      </clipPath>
      <clipPath clipPathUnits="userSpaceOnUse" id="clipPath12">
        <path d="M714 149 L736 149 L736 191 L714 191 L714 149 Z" />
      </clipPath>
      <clipPath clipPathUnits="userSpaceOnUse" id="clipPath13">
        <path d="M735 149 L782 149 L782 173 L735 173 L735 149 Z" />
      </clipPath>
      <clipPath clipPathUnits="userSpaceOnUse" id="clipPath14">
        <path d="M714 555 L736 555 L736 597 L714 597 L714 555 Z" />
      </clipPath>
      <clipPath clipPathUnits="userSpaceOnUse" id="clipPath15">
        <path d="M735 555 L782 555 L782 579 L735 579 L735 555 Z" />
      </clipPath>
      <clipPath clipPathUnits="userSpaceOnUse" id="clipPath16">
        <path d="M714 789 L736 789 L736 831 L714 831 L714 789 Z" />
      </clipPath>
      <clipPath clipPathUnits="userSpaceOnUse" id="clipPath17">
        <path d="M735 789 L782 789 L782 813 L735 813 L735 789 Z" />
      </clipPath>
      <clipPath clipPathUnits="userSpaceOnUse" id="clipPath18">
        <path d="M783 9 L912 9 L912 61 L783 61 L783 9 Z" />
      </clipPath>
      <clipPath clipPathUnits="userSpaceOnUse" id="clipPath19">
        <path d="M783 9 L914 9 L914 61 L783 61 L783 9 Z" />
      </clipPath>
      <clipPath clipPathUnits="userSpaceOnUse" id="clipPath20">
        <path d="M783 9 L915 9 L915 61 L783 61 L783 9 Z" />
      </clipPath>
      <clipPath clipPathUnits="userSpaceOnUse" id="clipPath21">
        <path d="M841 59 L853 59 L853 1001 L841 1001 L841 59 Z" />
      </clipPath>
      <clipPath clipPathUnits="userSpaceOnUse" id="clipPath22">
        <path d="M836 209 L858 209 L858 251 L836 251 L836 209 Z" />
      </clipPath>
      <clipPath clipPathUnits="userSpaceOnUse" id="clipPath23">
        <path d="M857 209 L904 209 L904 233 L857 233 L857 209 Z" />
      </clipPath>
      <clipPath clipPathUnits="userSpaceOnUse" id="clipPath24">
        <path d="M836 329 L858 329 L858 371 L836 371 L836 329 Z" />
      </clipPath>
      <clipPath clipPathUnits="userSpaceOnUse" id="clipPath25">
        <path d="M857 329 L904 329 L904 353 L857 353 L857 329 Z" />
      </clipPath>
      <clipPath clipPathUnits="userSpaceOnUse" id="clipPath26">
        <path d="M836 449 L858 449 L858 491 L836 491 L836 449 Z" />
      </clipPath>
      <clipPath clipPathUnits="userSpaceOnUse" id="clipPath27">
        <path d="M857 449 L904 449 L904 473 L857 473 L857 449 Z" />
      </clipPath>
      <clipPath clipPathUnits="userSpaceOnUse" id="clipPath28">
        <path d="M836 255 L858 255 L858 297 L836 297 L836 255 Z" />
      </clipPath>
      <clipPath clipPathUnits="userSpaceOnUse" id="clipPath29">
        <path d="M857 255 L904 255 L904 279 L857 279 L857 255 Z" />
      </clipPath>
      <clipPath clipPathUnits="userSpaceOnUse" id="clipPath30">
        <path d="M836 374 L858 374 L858 416 L836 416 L836 374 Z" />
      </clipPath>
      <clipPath clipPathUnits="userSpaceOnUse" id="clipPath31">
        <path d="M857 374 L904 374 L904 398 L857 398 L857 374 Z" />
      </clipPath>
      <clipPath clipPathUnits="userSpaceOnUse" id="clipPath32">
        <path d="M836 499 L858 499 L858 541 L836 541 L836 499 Z" />
      </clipPath>
      <clipPath clipPathUnits="userSpaceOnUse" id="clipPath33">
        <path d="M857 499 L904 499 L904 523 L857 523 L857 499 Z" />
      </clipPath>
      <clipPath clipPathUnits="userSpaceOnUse" id="clipPath34">
        <path d="M836 849 L858 849 L858 891 L836 891 L836 849 Z" />
      </clipPath>
      <clipPath clipPathUnits="userSpaceOnUse" id="clipPath35">
        <path d="M857 849 L904 849 L904 873 L857 873 L857 849 Z" />
      </clipPath>
      <clipPath clipPathUnits="userSpaceOnUse" id="clipPath36">
        <path d="M920 9 L1053 9 L1053 61 L920 61 L920 9 Z" />
      </clipPath>
      <clipPath clipPathUnits="userSpaceOnUse" id="clipPath37">
        <path d="M920 9 L1057 9 L1057 61 L920 61 L920 9 Z" />
      </clipPath>
      <clipPath clipPathUnits="userSpaceOnUse" id="clipPath38">
        <path d="M920 9 L1055 9 L1055 61 L920 61 L920 9 Z" />
      </clipPath>
      <clipPath clipPathUnits="userSpaceOnUse" id="clipPath39">
        <path d="M920 9 L1058 9 L1058 61 L920 61 L920 9 Z" />
      </clipPath>
      <clipPath clipPathUnits="userSpaceOnUse" id="clipPath40">
        <path d="M980 59 L992 59 L992 1001 L980 1001 L980 59 Z" />
      </clipPath>
      <clipPath clipPathUnits="userSpaceOnUse" id="clipPath41">
        <path d="M975 650 L997 650 L997 692 L975 692 L975 650 Z" />
      </clipPath>
      <clipPath clipPathUnits="userSpaceOnUse" id="clipPath42">
        <path d="M996 650 L1043 650 L1043 674 L996 674 L996 650 Z" />
      </clipPath>
      <clipPath clipPathUnits="userSpaceOnUse" id="clipPath43">
        <path d="M975 729 L997 729 L997 771 L975 771 L975 729 Z" />
      </clipPath>
      <clipPath clipPathUnits="userSpaceOnUse" id="clipPath44">
        <path d="M996 729 L1043 729 L1043 753 L996 753 L996 729 Z" />
      </clipPath>
      <clipPath clipPathUnits="userSpaceOnUse" id="clipPath45">
        <path d="M1061 9 L1192 9 L1192 61 L1061 61 L1061 9 Z" />
      </clipPath>
      <clipPath clipPathUnits="userSpaceOnUse" id="clipPath46">
        <path d="M1061 9 L1196 9 L1196 61 L1061 61 L1061 9 Z" />
      </clipPath>
      <clipPath clipPathUnits="userSpaceOnUse" id="clipPath47">
        <path d="M1061 9 L1194 9 L1194 61 L1061 61 L1061 9 Z" />
      </clipPath>
      <clipPath clipPathUnits="userSpaceOnUse" id="clipPath48">
        <path d="M1120 59 L1132 59 L1132 1001 L1120 1001 L1120 59 Z" />
      </clipPath>
      <clipPath clipPathUnits="userSpaceOnUse" id="clipPath49">
        <path d="M1115 909 L1137 909 L1137 951 L1115 951 L1115 909 Z" />
      </clipPath>
      <clipPath clipPathUnits="userSpaceOnUse" id="clipPath50">
        <path d="M1136 909 L1183 909 L1183 933 L1136 933 L1136 909 Z" />
      </clipPath>
      <clipPath clipPathUnits="userSpaceOnUse" id="clipPath51">
        <path d="M9 9 L81 9 L81 41 L9 41 L9 9 Z" />
      </clipPath>
      <clipPath clipPathUnits="userSpaceOnUse" id="clipPath52">
        <path d="M9 9 L86 9 L86 41 L9 41 L9 9 Z" />
      </clipPath>
      <clipPath clipPathUnits="userSpaceOnUse" id="clipPath53">
        <path d="M39 39 L51 39 L51 1001 L39 1001 L39 39 Z" />
      </clipPath>
      <clipPath clipPathUnits="userSpaceOnUse" id="clipPath54">
        <path d="M-1 -1 L1202 -1 L1202 1011 L-1 1011 L-1 -1 Z" />
      </clipPath>
      <clipPath clipPathUnits="userSpaceOnUse" id="clipPath55">
        <path d="M199 63 L510 63 L510 87 L199 87 L199 63 Z" />
      </clipPath>
      <clipPath clipPathUnits="userSpaceOnUse" id="clipPath56">
        <path d="M43 85 L55 85 L55 96 L43 96 L43 85 Z" />
      </clipPath>
      <clipPath clipPathUnits="userSpaceOnUse" id="clipPath57">
        <path d="M201 126 L507 126 L507 150 L201 150 L201 126 Z" />
      </clipPath>
      <clipPath clipPathUnits="userSpaceOnUse" id="clipPath58">
        <path d="M43 145 L55 145 L55 156 L43 156 L43 145 Z" />
      </clipPath>
      <clipPath clipPathUnits="userSpaceOnUse" id="clipPath59">
        <path d="M190 181 L497 181 L497 205 L190 205 L190 181 Z" />
      </clipPath>
      <clipPath clipPathUnits="userSpaceOnUse" id="clipPath60">
        <path d="M43 205 L55 205 L55 216 L43 216 L43 205 Z" />
      </clipPath>
      <clipPath clipPathUnits="userSpaceOnUse" id="clipPath61">
        <path d="M149 302 L692 302 L692 326 L149 326 L149 302 Z" />
      </clipPath>
      <clipPath clipPathUnits="userSpaceOnUse" id="clipPath62">
        <path d="M43 325 L55 325 L55 336 L43 336 L43 325 Z" />
      </clipPath>
      <clipPath clipPathUnits="userSpaceOnUse" id="clipPath63">
        <path d="M222 421 L321 421 L321 445 L222 445 L222 421 Z" />
      </clipPath>
      <clipPath clipPathUnits="userSpaceOnUse" id="clipPath64">
        <path d="M43 445 L55 445 L55 456 L43 456 L43 445 Z" />
      </clipPath>
      <clipPath clipPathUnits="userSpaceOnUse" id="clipPath65">
        <path d="M197 524 L503 524 L503 548 L197 548 L197 524 Z" />
      </clipPath>
      <clipPath clipPathUnits="userSpaceOnUse" id="clipPath66">
        <path d="M43 551 L55 551 L55 562 L43 562 L43 551 Z" />
      </clipPath>
      <clipPath clipPathUnits="userSpaceOnUse" id="clipPath67">
        <path d="M193 594 L660 594 L660 662 L193 662 L193 594 Z" />
      </clipPath>
      <clipPath clipPathUnits="userSpaceOnUse" id="clipPath68">
        <path d="M43 646 L55 646 L55 657 L43 657 L43 646 Z" />
      </clipPath>
      <clipPath clipPathUnits="userSpaceOnUse" id="clipPath69">
        <path d="M209 763 L451 763 L451 787 L209 787 L209 763 Z" />
      </clipPath>
      <clipPath clipPathUnits="userSpaceOnUse" id="clipPath70">
        <path d="M43 785 L55 785 L55 796 L43 796 L43 785 Z" />
      </clipPath>
      <clipPath clipPathUnits="userSpaceOnUse" id="clipPath71">
        <path d="M190 229 L546 229 L546 253 L190 253 L190 229 Z" />
      </clipPath>
      <clipPath clipPathUnits="userSpaceOnUse" id="clipPath72">
        <path d="M828 251 L840 251 L840 262 L828 262 L828 251 Z" />
      </clipPath>
      <clipPath clipPathUnits="userSpaceOnUse" id="clipPath73">
        <path d="M210 347 L399 347 L399 371 L210 371 L210 347 Z" />
      </clipPath>
      <clipPath clipPathUnits="userSpaceOnUse" id="clipPath74">
        <path d="M828 370 L840 370 L840 381 L828 381 L828 370 Z" />
      </clipPath>
      <clipPath clipPathUnits="userSpaceOnUse" id="clipPath75">
        <path d="M191 471 L582 471 L582 495 L191 495 L191 471 Z" />
      </clipPath>
      <clipPath clipPathUnits="userSpaceOnUse" id="clipPath76">
        <path d="M828 495 L840 495 L840 506 L828 506 L828 495 Z" />
      </clipPath>
      <clipPath clipPathUnits="userSpaceOnUse" id="clipPath77">
        <path d="M145 699 L1016 699 L1016 723 L145 723 L145 699 Z" />
      </clipPath>
      <clipPath clipPathUnits="userSpaceOnUse" id="clipPath78">
        <path d="M967 725 L979 725 L979 736 L967 736 L967 725 Z" />
      </clipPath>
      <clipPath clipPathUnits="userSpaceOnUse" id="clipPath79">
        <path d="M150 825 L906 825 L906 849 L150 849 L150 825 Z" />
      </clipPath>
      <clipPath clipPathUnits="userSpaceOnUse" id="clipPath80">
        <path d="M828 845 L840 845 L840 856 L828 856 L828 845 Z" />
      </clipPath>
      <clipPath clipPathUnits="userSpaceOnUse" id="clipPath81">
        <path d="M148 880 L904 880 L904 904 L148 904 L148 880 Z" />
      </clipPath>
      <clipPath clipPathUnits="userSpaceOnUse" id="clipPath82">
        <path d="M1107 905 L1119 905 L1119 916 L1107 916 L1107 905 Z" />
      </clipPath>
    </defs>
    <g font-size="19" fill="rgb(255,245,181)" font-family="'Lucida Sans'" stroke-linejoin="round" stroke="rgb(255,245,181)" stroke-width="0" stroke-miterlimit="0">
      <rect x="562" y="10" clip-path="url(#clipPath1)" width="105" height="50" stroke="none" />
    </g>
    <g stroke-width="0.1" font-size="19" font-family="'Lucida Sans'" stroke-linecap="butt">
      <rect x="562" y="10" clip-path="url(#clipPath1)" fill="none" width="104" height="49" />
      <text xml:space="preserve" x="569" y="21" clip-path="url(#clipPath2)" stroke="none">theCreator</text>
      <text xml:space="preserve" x="609" y="43" clip-path="url(#clipPath3)" stroke="none">: </text>
      <text xml:space="preserve" x="563" y="65" clip-path="url(#clipPath2)" stroke="none">actMsrCre...</text>
      <line clip-path="url(#clipPath4)" fill="none" x1="613" x2="613" y1="60" y2="1000" stroke-dasharray="10,10" stroke-width="1.1" />
    </g>
    <g stroke-linecap="butt" font-size="19" fill="rgb(77,137,20)" font-family="'Lucida Sans'" stroke-dasharray="10,10" stroke="rgb(77,137,20)" stroke-width="1.1">
      <rect x="604" y="90" clip-path="url(#clipPath5)" width="20" height="40" stroke="none" />
      <rect x="605" y="91" clip-path="url(#clipPath5)" fill="none" width="18" stroke-dasharray="none" height="38" stroke-width="2.1" />
      <text x="625" y="109" clip-path="url(#clipPath6)" stroke-dasharray="none" stroke="none" stroke-width="2.1" xml:space="preserve">tsi01</text>
    </g>
    <g stroke-linecap="butt" font-size="19" fill="rgb(255,245,181)" font-family="'Lucida Sans'" stroke="rgb(255,245,181)" stroke-width="2.1">
      <rect x="677" y="10" clip-path="url(#clipPath7)" width="97" height="50" stroke="none" />
      <rect x="677" y="10" clip-path="url(#clipPath7)" fill="none" width="96" height="49" stroke="black" stroke-width="0.1" />
      <text x="688" y="21" clip-path="url(#clipPath8)" fill="black" stroke="none" stroke-width="0.1" xml:space="preserve">theClock</text>
      <text x="720" y="43" clip-path="url(#clipPath9)" fill="black" stroke="none" stroke-width="0.1" xml:space="preserve">: </text>
      <text x="677" y="65" clip-path="url(#clipPath10)" fill="black" stroke="none" stroke-width="0.1" xml:space="preserve">actActivat...</text>
    </g>
    <g stroke-width="1.1" font-size="19" stroke-dasharray="10,10" font-family="'Lucida Sans'" stroke-linecap="butt">
      <line clip-path="url(#clipPath11)" fill="none" x1="724" x2="724" y1="60" y2="1000" />
      <rect x="715" y="150" clip-path="url(#clipPath12)" fill="rgb(77,137,20)" width="20" height="40" stroke="none" />
    </g>
    <g stroke-linecap="butt" font-size="19" fill="rgb(77,137,20)" font-family="'Lucida Sans'" stroke="rgb(77,137,20)" stroke-width="2.1">
      <rect x="716" y="151" clip-path="url(#clipPath12)" fill="none" width="18" height="38" />
      <text xml:space="preserve" x="736" y="169" clip-path="url(#clipPath13)" stroke="none">tsi02</text>
      <rect x="715" y="556" clip-path="url(#clipPath14)" width="20" height="40" stroke="none" />
      <rect x="716" y="557" clip-path="url(#clipPath14)" fill="none" width="18" height="38" />
      <text xml:space="preserve" x="736" y="575" clip-path="url(#clipPath15)" stroke="none">tsi06</text>
      <rect x="715" y="790" clip-path="url(#clipPath16)" width="20" height="40" stroke="none" />
      <rect x="716" y="791" clip-path="url(#clipPath16)" fill="none" width="18" height="38" />
      <text xml:space="preserve" x="736" y="809" clip-path="url(#clipPath17)" stroke="none">tsi09</text>
      <rect x="784" y="10" clip-path="url(#clipPath18)" fill="rgb(255,245,181)" width="127" height="50" stroke="none" />
      <rect x="784" y="10" clip-path="url(#clipPath18)" fill="none" width="126" height="49" stroke="black" stroke-width="0.1" />
      <text x="835" y="21" clip-path="url(#clipPath19)" fill="black" stroke="none" stroke-width="0.1" xml:space="preserve">bill</text>
      <text x="842" y="43" clip-path="url(#clipPath19)" fill="black" stroke="none" stroke-width="0.1" xml:space="preserve">: </text>
      <text x="788" y="65" clip-path="url(#clipPath20)" fill="black" stroke="none" stroke-width="0.1" xml:space="preserve">actAdministr...</text>
    </g>
    <g stroke-width="1.1" font-size="19" stroke-dasharray="10,10" font-family="'Lucida Sans'" stroke-linecap="butt">
      <line clip-path="url(#clipPath21)" fill="none" x1="846" x2="846" y1="60" y2="1000" />
      <rect x="837" y="210" clip-path="url(#clipPath22)" fill="rgb(77,137,20)" width="20" height="40" stroke="none" />
    </g>
    <g stroke-linecap="butt" font-size="19" fill="rgb(77,137,20)" font-family="'Lucida Sans'" stroke="rgb(77,137,20)" stroke-width="2.1">
      <rect x="838" y="211" clip-path="url(#clipPath22)" fill="none" width="18" height="38" />
      <text xml:space="preserve" x="858" y="229" clip-path="url(#clipPath23)" stroke="none">tsi03</text>
      <rect x="837" y="330" clip-path="url(#clipPath24)" width="20" height="40" stroke="none" />
      <rect x="838" y="331" clip-path="url(#clipPath24)" fill="none" width="18" height="38" />
      <text xml:space="preserve" x="858" y="349" clip-path="url(#clipPath25)" stroke="none">tsi04</text>
      <rect x="837" y="450" clip-path="url(#clipPath26)" width="20" height="40" stroke="none" />
      <rect x="838" y="451" clip-path="url(#clipPath26)" fill="none" width="18" height="38" />
      <text xml:space="preserve" x="858" y="469" clip-path="url(#clipPath27)" stroke="none">tsi05</text>
      <rect x="837" y="256" clip-path="url(#clipPath28)" fill="rgb(204,242,166)" width="20" height="40" stroke="none" />
      <rect x="837" y="256" clip-path="url(#clipPath28)" fill="none" width="19" height="39" stroke="rgb(209,209,209)" stroke-width="0.1" />
      <text x="858" y="275" clip-path="url(#clipPath29)" stroke="none" stroke-width="0.1" xml:space="preserve">tsi03</text>
      <rect x="837" y="375" clip-path="url(#clipPath30)" fill="rgb(204,242,166)" width="20" height="40" stroke="none" stroke-width="0.1" />
      <rect x="837" y="375" clip-path="url(#clipPath30)" fill="none" width="19" height="39" stroke="rgb(209,209,209)" stroke-width="0.1" />
      <text x="858" y="394" clip-path="url(#clipPath31)" stroke="none" stroke-width="0.1" xml:space="preserve">tsi04</text>
      <rect x="837" y="500" clip-path="url(#clipPath32)" fill="rgb(204,242,166)" width="20" height="40" stroke="none" stroke-width="0.1" />
      <rect x="837" y="500" clip-path="url(#clipPath32)" fill="none" width="19" height="39" stroke="rgb(209,209,209)" stroke-width="0.1" />
      <text x="858" y="519" clip-path="url(#clipPath33)" stroke="none" stroke-width="0.1" xml:space="preserve">tsi05</text>
      <rect x="837" y="850" clip-path="url(#clipPath34)" fill="rgb(204,242,166)" width="20" height="40" stroke="none" stroke-width="0.1" />
      <rect x="837" y="850" clip-path="url(#clipPath34)" fill="none" width="19" height="39" stroke="rgb(209,209,209)" stroke-width="0.1" />
      <text x="858" y="869" clip-path="url(#clipPath35)" stroke="none" stroke-width="0.1" xml:space="preserve">tsi09</text>
      <rect x="921" y="10" clip-path="url(#clipPath36)" fill="rgb(255,245,181)" width="131" height="50" stroke="none" stroke-width="0.1" />
      <rect x="921" y="10" clip-path="url(#clipPath36)" fill="none" width="130" height="49" stroke="black" stroke-width="0.1" />
      <text x="962" y="21" clip-path="url(#clipPath37)" fill="black" stroke="none" stroke-width="0.1" xml:space="preserve">tango</text>
      <text x="981" y="43" clip-path="url(#clipPath38)" fill="black" stroke="none" stroke-width="0.1" xml:space="preserve">: </text>
      <text x="925" y="65" clip-path="url(#clipPath39)" fill="black" stroke="none" stroke-width="0.1" xml:space="preserve">actComCom...</text>
    </g>
    <g stroke-width="1.1" font-size="19" stroke-dasharray="10,10" font-family="'Lucida Sans'" stroke-linecap="butt">
      <line clip-path="url(#clipPath40)" fill="none" x1="985" x2="985" y1="60" y2="1000" />
      <rect x="976" y="651" clip-path="url(#clipPath41)" fill="rgb(77,137,20)" width="20" height="40" stroke="none" />
    </g>
    <g stroke-linecap="butt" font-size="19" fill="rgb(77,137,20)" font-family="'Lucida Sans'" stroke="rgb(77,137,20)" stroke-width="2.1">
      <rect x="977" y="652" clip-path="url(#clipPath41)" fill="none" width="18" height="38" />
      <text xml:space="preserve" x="997" y="670" clip-path="url(#clipPath42)" stroke="none">tsi07</text>
      <rect x="976" y="730" clip-path="url(#clipPath43)" fill="rgb(204,242,166)" width="20" height="40" stroke="none" />
      <rect x="976" y="730" clip-path="url(#clipPath43)" fill="none" width="19" height="39" stroke="rgb(209,209,209)" stroke-width="0.1" />
      <text x="997" y="749" clip-path="url(#clipPath44)" stroke="none" stroke-width="0.1" xml:space="preserve">tsi07</text>
      <rect x="1062" y="10" clip-path="url(#clipPath45)" fill="rgb(255,245,181)" width="129" height="50" stroke="none" stroke-width="0.1" />
      <rect x="1062" y="10" clip-path="url(#clipPath45)" fill="none" width="128" height="49" stroke="black" stroke-width="0.1" />
      <text x="1103" y="21" clip-path="url(#clipPath46)" fill="black" stroke="none" stroke-width="0.1" xml:space="preserve">steve</text>
      <text x="1121" y="43" clip-path="url(#clipPath47)" fill="black" stroke="none" stroke-width="0.1" xml:space="preserve">: </text>
      <text x="1064" y="65" clip-path="url(#clipPath46)" fill="black" stroke="none" stroke-width="0.1" xml:space="preserve">actCoordinator</text>
    </g>
    <g stroke-width="1.1" font-size="19" stroke-dasharray="10,10" font-family="'Lucida Sans'" stroke-linecap="butt">
      <line clip-path="url(#clipPath48)" fill="none" x1="1125" x2="1125" y1="60" y2="1000" />
      <rect x="1116" y="910" clip-path="url(#clipPath49)" fill="rgb(204,242,166)" width="20" height="40" stroke="none" />
    </g>
    <g stroke-linecap="butt" font-size="19" fill="rgb(209,209,209)" font-family="'Lucida Sans'" stroke="rgb(209,209,209)" stroke-width="0.1">
      <rect x="1116" y="910" clip-path="url(#clipPath49)" fill="none" width="19" height="39" />
      <text x="1137" y="929" clip-path="url(#clipPath50)" fill="rgb(77,137,20)" stroke="none" xml:space="preserve">tsi09</text>
      <rect x="10" y="10" clip-path="url(#clipPath51)" fill="rgb(238,201,142)" width="70" height="30" stroke="none" />
      <rect x="10" y="10" clip-path="url(#clipPath51)" fill="none" width="69" height="29" stroke="black" />
      <text x="13" y="33" clip-path="url(#clipPath52)" fill="black" stroke="none" xml:space="preserve">System</text>
    </g>
    <g stroke-width="1.1" font-size="19" stroke-dasharray="10,10" font-family="'Lucida Sans'" stroke-linecap="butt">
      <line clip-path="url(#clipPath53)" fill="none" x1="44" x2="44" y1="40" y2="1000" />
    </g>
    <g stroke-linecap="butt" font-size="19" fill="rgb(136,136,136)" font-family="'Lucida Sans'" stroke="rgb(136,136,136)" stroke-width="2.1">
      <line clip-path="url(#clipPath54)" fill="none" x1="604" x2="45" y1="90" y2="90" />
      <text x="200" y="83" clip-path="url(#clipPath55)" fill="black" stroke="none" xml:space="preserve">oeCreateSystemAndEnvironment(4)</text>
      <line clip-path="url(#clipPath56)" fill="none" x1="52" x2="45" y1="87" y2="90" />
      <line clip-path="url(#clipPath56)" fill="none" x1="45" x2="52" y1="90" y2="93" />
      <line clip-path="url(#clipPath54)" fill="none" x1="715" x2="45" y1="150" y2="150" />
      <text x="202" y="146" clip-path="url(#clipPath57)" fill="black" stroke="none" xml:space="preserve">oeSetClock(2017:11:24 - 03:20:00)</text>
      <line clip-path="url(#clipPath58)" fill="none" x1="52" x2="45" y1="147" y2="150" />
      <line clip-path="url(#clipPath58)" fill="none" x1="45" x2="52" y1="150" y2="153" />
      <line clip-path="url(#clipPath54)" fill="none" x1="837" x2="45" y1="210" y2="210" />
      <text x="191" y="201" clip-path="url(#clipPath59)" fill="black" stroke="none" xml:space="preserve">oeLogin(icrashadmin,EncodedPwd)</text>
      <line clip-path="url(#clipPath60)" fill="none" x1="52" x2="45" y1="207" y2="210" />
      <line clip-path="url(#clipPath60)" fill="none" x1="45" x2="52" y1="210" y2="213" />
      <line clip-path="url(#clipPath54)" fill="none" x1="837" x2="45" y1="330" y2="330" />
      <text x="150" y="322" clip-path="url(#clipPath61)" fill="black" stroke="none" xml:space="preserve">oeAddCoordinator(1,steve,pwdMessirExcalibur2017,PublicKey)</text>
      <line clip-path="url(#clipPath62)" fill="none" x1="52" x2="45" y1="327" y2="330" />
      <line clip-path="url(#clipPath62)" fill="none" x1="45" x2="52" y1="330" y2="333" />
      <line clip-path="url(#clipPath54)" fill="none" x1="837" x2="45" y1="450" y2="450" />
      <text x="223" y="441" clip-path="url(#clipPath63)" fill="black" stroke="none" xml:space="preserve">oeLogout()</text>
      <line clip-path="url(#clipPath64)" fill="none" x1="52" x2="45" y1="447" y2="450" />
      <line clip-path="url(#clipPath64)" fill="none" x1="45" x2="52" y1="450" y2="453" />
      <line clip-path="url(#clipPath54)" fill="none" x1="715" x2="45" y1="556" y2="556" />
      <text x="198" y="544" clip-path="url(#clipPath65)" fill="black" stroke="none" xml:space="preserve">oeSetClock(2017:11:26 - 10:15:00)</text>
      <line clip-path="url(#clipPath66)" fill="none" x1="52" x2="45" y1="553" y2="556" />
      <line clip-path="url(#clipPath66)" fill="none" x1="45" x2="52" y1="556" y2="559" />
      <line clip-path="url(#clipPath54)" fill="none" x1="976" x2="45" y1="651" y2="651" />
      <text x="265" y="614" clip-path="url(#clipPath67)" fill="black" stroke="none" xml:space="preserve">oeAlert(witness,2017:11:26,10:10:16,</text>
      <text x="224" y="636" clip-path="url(#clipPath67)" fill="black" stroke="none" xml:space="preserve">+3524666445252,49.627675:6.159590,3 cars </text>
      <text x="324" y="658" clip-path="url(#clipPath67)" fill="black" stroke="none" xml:space="preserve">involved in an accident.)</text>
      <line clip-path="url(#clipPath68)" fill="none" x1="52" x2="45" y1="648" y2="651" />
      <line clip-path="url(#clipPath68)" fill="none" x1="45" x2="52" y1="651" y2="654" />
      <line clip-path="url(#clipPath54)" fill="none" x1="715" x2="45" y1="790" y2="790" />
      <text x="210" y="783" clip-path="url(#clipPath69)" fill="black" stroke="none" xml:space="preserve">oeSollicitateCrisisHandling()</text>
      <line clip-path="url(#clipPath70)" fill="none" x1="52" x2="45" y1="787" y2="790" />
      <line clip-path="url(#clipPath70)" fill="none" x1="45" x2="52" y1="790" y2="793" />
      <line clip-path="url(#clipPath54)" fill="none" x1="837" x2="45" y1="256" y2="256" stroke-dasharray="5,5" />
      <text x="191" y="249" clip-path="url(#clipPath71)" fill="black" stroke-dasharray="5,5" stroke="none" xml:space="preserve">ieMessage(You are logged ! Welcome ...)</text>
      <line clip-path="url(#clipPath72)" fill="none" x1="830" x2="837" y1="259" y2="256" />
      <line clip-path="url(#clipPath72)" fill="none" x1="837" x2="830" y1="256" y2="253" />
      <line clip-path="url(#clipPath54)" fill="none" x1="837" x2="45" y1="375" y2="375" stroke-dasharray="5,5" />
      <text x="211" y="367" clip-path="url(#clipPath73)" fill="black" stroke-dasharray="5,5" stroke="none" xml:space="preserve">ieCoordinatorAdded()</text>
      <line clip-path="url(#clipPath74)" fill="none" x1="830" x2="837" y1="378" y2="375" />
      <line clip-path="url(#clipPath74)" fill="none" x1="837" x2="830" y1="375" y2="372" />
      <line clip-path="url(#clipPath54)" fill="none" x1="837" x2="45" y1="500" y2="500" stroke-dasharray="5,5" />
      <text x="192" y="491" clip-path="url(#clipPath75)" fill="black" stroke-dasharray="5,5" stroke="none" xml:space="preserve">ieMessage(You are logged out ! Good Bye ...)</text>
      <line clip-path="url(#clipPath76)" fill="none" x1="830" x2="837" y1="503" y2="500" />
      <line clip-path="url(#clipPath76)" fill="none" x1="837" x2="830" y1="500" y2="497" />
      <line clip-path="url(#clipPath54)" fill="none" x1="976" x2="45" y1="730" y2="730" stroke-dasharray="5,5" />
      <text x="146" y="719" clip-path="url(#clipPath77)" fill="black" stroke-dasharray="5,5" stroke="none" xml:space="preserve">ieSmsSend(+3524666445252,Your alert has been registered. We will handle it and keep you informed)</text>
      <line clip-path="url(#clipPath78)" fill="none" x1="969" x2="976" y1="733" y2="730" />
      <line clip-path="url(#clipPath78)" fill="none" x1="976" x2="969" y1="730" y2="727" />
      <line clip-path="url(#clipPath54)" fill="none" x1="837" x2="45" y1="850" y2="850" stroke-dasharray="5,5" />
      <text x="151" y="845" clip-path="url(#clipPath79)" fill="black" stroke-dasharray="5,5" stroke="none" xml:space="preserve">ieMessage(There are alerts pending since more than the defined delay. Please REACT !)</text>
      <line clip-path="url(#clipPath80)" fill="none" x1="830" x2="837" y1="853" y2="850" />
      <line clip-path="url(#clipPath80)" fill="none" x1="837" x2="830" y1="850" y2="847" />
      <line clip-path="url(#clipPath54)" fill="none" x1="1116" x2="45" y1="910" y2="910" stroke-dasharray="5,5" />
      <text x="149" y="900" clip-path="url(#clipPath81)" fill="black" stroke-dasharray="5,5" stroke="none" xml:space="preserve">ieMessage(There are alerts pending since more than the defined delay. Please REACT !)</text>
      <line clip-path="url(#clipPath82)" fill="none" x1="1109" x2="1116" y1="913" y2="910" />
      <line clip-path="url(#clipPath82)" fill="none" x1="1116" x2="1109" y1="910" y2="907" />
    </g>
  </g>
</svg>

